<?xml version="1.0" encoding="utf-8"?>
<!-- Generator: Adobe Illustrator 24.0.1, SVG Export Plug-In . SVG Version: 6.00 Build 0)  -->
<svg version="1.1" id="Layer_1" xmlns="http://www.w3.org/2000/svg" xmlns:xlink="http://www.w3.org/1999/xlink" x="0px" y="0px"
	 viewBox="0 0 783.5 178.8" style="enable-background:new 0 0 783.5 178.8;" xml:space="preserve">
<style type="text/css">
	.st0{enable-background:new    ;}
</style>
<g class="st0">
	<path d="M51.4,49.9h51.8v8.5H60v23.8h38.4v8.5H60v34.4h-8.6V49.9z"/>
	<path d="M107.1,87.8c0-22.3,14.6-39.7,37-39.7c22.3,0,36.7,17.5,36.7,39.7c0,22.6-15.2,39.2-36.7,39.2
		C122.5,127,107.1,110.4,107.1,87.8z M171.6,87.7c0-17.6-10.7-31-27.5-31c-16.8,0-27.6,13.4-27.6,31c0,18.1,11.7,30.8,27.6,30.8
		C159.9,118.5,171.6,105.9,171.6,87.7z"/>
	<path d="M190.8,97.4V49.9h8.7v47.7c0,14.1,7.3,20.8,20.3,20.8c12.6,0,20.8-6.3,20.8-20.7V49.9h8.7v47.6c0,19.7-12.1,29.5-29.5,29.5
		C202.6,127,190.8,117.3,190.8,97.4z"/>
	<path d="M262.6,49.9h31.2c15,0,24.1,9.6,24.1,21.6c0,8.4-4.4,15.3-12.9,18.8c9.6,5.6,6.3,18.4,14.8,34.8H310
		c-5-7.5-4.3-32.4-17.1-32.4h-21.7v32.4h-8.6V49.9z M293.6,84.2c9.1,0,15.5-5.3,15.5-13.1c0-7.4-5.8-12.7-15.5-12.7h-22.4v25.8
		H293.6z"/>
	<path d="M326.5,103.6l8.4-1.9c1.5,10.4,8.7,16.6,20.4,16.6c10.5,0,18.8-4.9,18.8-12.9c0-5.7-4.2-10.5-20.6-15.4
		c-18.6-5.3-24.8-12.1-24.8-22.1c0-12.9,10.4-19.8,25.5-19.8c16.9,0,24.4,8.6,27,20.4l-8.4,1.9c-2.1-9.7-8.7-13.8-18.9-13.8
		c-9.6,0-16.4,3.6-16.4,10.5c0,5.6,4.4,9.9,19.6,14.7c18.1,5.6,25.9,11.7,25.9,23.3c0,14.4-12.1,21.9-27.5,21.9
		C339.4,127,328.4,118.6,326.5,103.6z"/>
	<path d="M389.8,87.8c0-22.3,14.6-39.7,37-39.7c22.3,0,36.7,17.5,36.7,39.7c0,11.1-3.7,20.7-9.9,27.7c3,3,5.9,6,8.8,9.2l-6.2,6
		c-3-3.2-6.1-6.4-9.2-9.5c-5.7,3.7-12.5,5.8-20.2,5.8C405.2,127,389.8,110.4,389.8,87.8z M440.5,114.8c-2.9-2.8-5.8-5.5-8.8-8.1
		l6-6.1c3.2,2.8,6.4,5.7,9.4,8.6c4.5-5.4,7.2-12.8,7.2-21.5c0-17.6-10.7-31-27.5-31c-16.8,0-27.6,13.4-27.6,31
		c0,18.1,11.7,30.8,27.6,30.8C431.9,118.5,436.5,117.2,440.5,114.8z"/>
	<path d="M473.9,97.4V49.9h8.7v47.7c0,14.1,7.3,20.8,20.3,20.8c12.6,0,20.8-6.3,20.8-20.7V49.9h8.7v47.6c0,19.7-12.1,29.5-29.5,29.5
		C485.7,127,473.9,117.3,473.9,97.4z"/>
	<path d="M565,49.9h10.2l29.2,75.2h-9.2l-8.5-21.9h-33.3l-8.4,21.9h-9.4L565,49.9z M583.3,94.8l-13.1-34.5l-13.4,34.5H583.3z"/>
	<path d="M611.4,49.9h31.2c15,0,24.1,9.6,24.1,21.6c0,8.4-4.4,15.3-12.9,18.8c9.6,5.6,6.3,18.4,14.8,34.8h-9.8
		c-5-7.5-4.3-32.4-17.1-32.4H620v32.4h-8.6V49.9z M642.4,84.2c9.1,0,15.5-5.3,15.5-13.1c0-7.4-5.8-12.7-15.5-12.7H620v25.8H642.4z"
		/>
	<path d="M678.8,49.9h52.4v8.5h-43.8v23.8h40.5v8.5h-40.5v25.8h44.7v8.6h-53.3V49.9z"/>
</g>
</svg>
