<svg width="200" height="40" viewBox="0 0 200 40" fill="none" xmlns="http://www.w3.org/2000/svg">
<path fill-rule="evenodd" clip-rule="evenodd" d="M18.1507 9.60839H36.1556L33.002 4H14.9972L18.1507 9.60839ZM41.9873 19.9999L41.9917 19.9892L38.7342 14.1963H20.7309L23.9929 19.9999H41.9873Z" fill="#7EC4F7"/>
<path fill-rule="evenodd" clip-rule="evenodd" d="M15.5706 14.1964L18.1508 9.60839L14.9972 4H14.9957L11.8422 9.60839L9.26347 14.1964L9.15355 14.3901L6 20L9.15348 25.6083L9.15342 25.6084L11.7337 30.1964L11.7338 30.1963L14.9971 35.9999L18.1508 30.3915L23.993 19.9999L20.731 14.1963H20.7295L17.4675 19.9999L14.8873 24.5879L14.8873 24.588L12.3086 20H12.3071L15.5706 14.1964Z" fill="#2E7CF6"/>
<path fill-rule="evenodd" clip-rule="evenodd" d="M41.9873 20L32.9902 36L29.7325 30.2071L35.4723 20H41.9873Z" fill="#6C2CF5"/>
<path fill-rule="evenodd" clip-rule="evenodd" d="M35.4641 19.9951L32.1251 25.9704L42 19.9951L35.4641 19.9951Z" fill="#26105F"/>
<mask id="path-5-outside-1" maskUnits="userSpaceOnUse" x="57" y="7.5" width="132" height="25" fill="black">
<rect fill="#000" x="57" y="7.5" width="132" height="25"/>
<path d="M63.7702 31.5C65.6123 31.5 67.06 30.8972 68.0293 30.0504C68.3434 29.7761 69.0331 29.9964 69.0331 30.4133V30.8363C69.0331 31.0572 69.2121 31.2363 69.4331 31.2363H71.2645C71.4854 31.2363 71.6645 31.0572 71.6645 30.8363V16.3127C71.6645 16.0918 71.4854 15.9127 71.2645 15.9127H69.4331C69.2121 15.9127 69.0331 16.0918 69.0331 16.3127V25.2006C69.0331 27.9548 66.8138 29.3904 64.4677 29.3904C61.8679 29.3904 60.6314 28.1892 60.6314 25.4936V16.3127C60.6314 16.0918 60.4524 15.9127 60.2314 15.9127H58.4C58.1791 15.9127 58 16.0918 58 16.3127V25.6108C58 29.8299 60.4729 31.5 63.7702 31.5Z"/>
<path d="M77.2999 30.8363C77.2999 31.0572 77.479 31.2363 77.6999 31.2363H79.5314C79.7523 31.2363 79.9314 31.0572 79.9314 30.8363V21.9484C79.9314 19.1943 82.119 17.7586 84.5602 17.7586C87.2233 17.7586 88.4598 18.9599 88.4598 21.6554V30.8363C88.4598 31.0572 88.6389 31.2363 88.8598 31.2363H90.6912C90.9121 31.2363 91.0912 31.0572 91.0912 30.8363V21.8312C91.0912 17.3777 88.6817 15.649 85.2577 15.649C83.3711 15.649 81.9095 16.2522 80.9359 17.0995C80.6214 17.3732 79.9314 17.1527 79.9314 16.7357V16.3127C79.9314 16.0918 79.7523 15.9127 79.5314 15.9127H77.6999C77.479 15.9127 77.2999 16.0918 77.2999 16.3127V30.8363Z"/>
<path d="M97.1358 30.8363C97.1358 31.0572 97.3149 31.2363 97.5358 31.2363H99.3673C99.5882 31.2363 99.7673 31.0572 99.7673 30.8363V18.3637C99.7673 18.1428 99.9464 17.9637 100.167 17.9637H103.425C103.646 17.9637 103.825 17.7846 103.825 17.5637V16.3127C103.825 16.0918 103.646 15.9127 103.425 15.9127H100.167C99.9464 15.9127 99.7673 15.7337 99.7673 15.5127V13.1586C99.7673 11.6057 100.465 10.5217 102.177 10.5217C102.657 10.5217 103.109 10.5851 103.498 10.6785C103.768 10.7436 104.047 10.5481 104.047 10.2696V9.08832C104.047 8.91277 103.933 8.75657 103.764 8.70946C103.241 8.56378 102.811 8.5 102.082 8.5C98.7845 8.5 97.1358 10.3166 97.1358 13.4223V15.5127C97.1358 15.7337 96.9567 15.9127 96.7358 15.9127H95.158C94.9371 15.9127 94.758 16.0918 94.758 16.3127V17.5637C94.758 17.7846 94.9371 17.9637 95.158 17.9637H96.7358C96.9567 17.9637 97.1358 18.1428 97.1358 18.3637V30.8363Z"/>
<path d="M113.949 29.4783C110.588 29.4783 108.528 27.193 108.528 23.7064V23.472C108.528 19.9561 110.62 17.6707 113.949 17.6707C117.246 17.6707 119.37 19.9561 119.37 23.5013V23.7064C119.37 27.1637 117.278 29.4783 113.949 29.4783ZM113.917 31.5C118.641 31.5 122.097 28.3064 122.097 23.6771V23.4427C122.097 18.8427 118.641 15.649 113.949 15.649C109.257 15.649 105.801 18.872 105.801 23.472V23.7064C105.801 28.1892 109.193 31.5 113.917 31.5Z"/>
<path d="M126.552 30.8363C126.552 31.0572 126.731 31.2363 126.952 31.2363H128.815C129.036 31.2363 129.215 31.0572 129.215 30.8363V8.9879C129.215 8.76698 129.036 8.5879 128.815 8.5879H126.952C126.731 8.5879 126.552 8.76698 126.552 8.9879V30.8363Z"/>
<path d="M141.163 31.5C142.998 31.5 144.778 30.6841 145.943 29.635C146.24 29.3671 146.838 29.5726 146.838 29.9727V30.8363C146.838 31.0572 147.017 31.2363 147.238 31.2363H149.07C149.29 31.2363 149.47 31.0572 149.47 30.8363V8.9879C149.47 8.76698 149.29 8.5879 149.07 8.5879H147.238C147.017 8.5879 146.838 8.76698 146.838 8.9879V17.0005C146.838 17.4007 146.26 17.5897 145.972 17.3123C144.96 16.3387 143.481 15.649 141.417 15.649C136.851 15.649 133.681 18.9599 133.681 23.6478V23.8822C133.681 28.658 136.82 31.5 141.163 31.5ZM141.448 29.4783C138.658 29.4783 136.407 27.6325 136.407 23.765V23.5306C136.407 19.8096 138.373 17.6707 141.67 17.6707C144.904 17.6707 146.933 19.5166 146.933 23.4427V23.6771C146.933 27.6032 144.524 29.4783 141.448 29.4783Z"/>
<path d="M161.896 31.5C165.442 31.5 168.105 30.0523 168.859 27.2816C168.925 27.0402 168.735 26.8121 168.485 26.8121H166.664C166.473 26.8121 166.311 26.9486 166.257 27.1323C165.798 28.7044 164.337 29.4783 161.928 29.4783C158.672 29.4783 156.877 27.6977 156.625 24.473C156.607 24.247 156.79 24.058 157.016 24.058H168.693C168.914 24.058 169.093 23.8789 169.093 23.658V23.2669C169.093 17.7879 165.479 15.649 161.642 15.649C157.077 15.649 153.875 18.872 153.875 23.5013V23.7357C153.875 28.4529 157.204 31.5 161.896 31.5ZM157.167 22.0949C156.92 22.0949 156.732 21.8733 156.787 21.633C157.352 19.1794 159.103 17.6707 161.642 17.6707C164.241 17.6707 165.976 18.8153 166.352 21.6628C166.383 21.8943 166.198 22.0949 165.965 22.0949H157.167Z"/>
<path d="M179.694 31.5C181.529 31.5 183.309 30.6841 184.473 29.635C184.771 29.3671 185.369 29.5726 185.369 29.9727V30.8363C185.369 31.0572 185.548 31.2363 185.769 31.2363H187.6C187.821 31.2363 188 31.0572 188 30.8363V8.9879C188 8.76698 187.821 8.5879 187.6 8.5879H185.769C185.548 8.5879 185.369 8.76698 185.369 8.9879V17.0005C185.369 17.4007 184.791 17.5897 184.502 17.3123C183.49 16.3387 182.012 15.649 179.947 15.649C175.382 15.649 172.211 18.9599 172.211 23.6478V23.8822C172.211 28.658 175.35 31.5 179.694 31.5ZM179.979 29.4783C177.189 29.4783 174.938 27.6325 174.938 23.765V23.5306C174.938 19.8096 176.904 17.6707 180.201 17.6707C183.435 17.6707 185.464 19.5166 185.464 23.4427V23.6771C185.464 27.6032 183.054 29.4783 179.979 29.4783Z"/>
</mask>
<path d="M63.7702 31.5C65.6123 31.5 67.06 30.8972 68.0293 30.0504C68.3434 29.7761 69.0331 29.9964 69.0331 30.4133V30.8363C69.0331 31.0572 69.2121 31.2363 69.4331 31.2363H71.2645C71.4854 31.2363 71.6645 31.0572 71.6645 30.8363V16.3127C71.6645 16.0918 71.4854 15.9127 71.2645 15.9127H69.4331C69.2121 15.9127 69.0331 16.0918 69.0331 16.3127V25.2006C69.0331 27.9548 66.8138 29.3904 64.4677 29.3904C61.8679 29.3904 60.6314 28.1892 60.6314 25.4936V16.3127C60.6314 16.0918 60.4524 15.9127 60.2314 15.9127H58.4C58.1791 15.9127 58 16.0918 58 16.3127V25.6108C58 29.8299 60.4729 31.5 63.7702 31.5Z" fill="#000"/>
<path d="M77.2999 30.8363C77.2999 31.0572 77.479 31.2363 77.6999 31.2363H79.5314C79.7523 31.2363 79.9314 31.0572 79.9314 30.8363V21.9484C79.9314 19.1943 82.119 17.7586 84.5602 17.7586C87.2233 17.7586 88.4598 18.9599 88.4598 21.6554V30.8363C88.4598 31.0572 88.6389 31.2363 88.8598 31.2363H90.6912C90.9121 31.2363 91.0912 31.0572 91.0912 30.8363V21.8312C91.0912 17.3777 88.6817 15.649 85.2577 15.649C83.3711 15.649 81.9095 16.2522 80.9359 17.0995C80.6214 17.3732 79.9314 17.1527 79.9314 16.7357V16.3127C79.9314 16.0918 79.7523 15.9127 79.5314 15.9127H77.6999C77.479 15.9127 77.2999 16.0918 77.2999 16.3127V30.8363Z" fill="#000"/>
<path d="M97.1358 30.8363C97.1358 31.0572 97.3149 31.2363 97.5358 31.2363H99.3673C99.5882 31.2363 99.7673 31.0572 99.7673 30.8363V18.3637C99.7673 18.1428 99.9464 17.9637 100.167 17.9637H103.425C103.646 17.9637 103.825 17.7846 103.825 17.5637V16.3127C103.825 16.0918 103.646 15.9127 103.425 15.9127H100.167C99.9464 15.9127 99.7673 15.7337 99.7673 15.5127V13.1586C99.7673 11.6057 100.465 10.5217 102.177 10.5217C102.657 10.5217 103.109 10.5851 103.498 10.6785C103.768 10.7436 104.047 10.5481 104.047 10.2696V9.08832C104.047 8.91277 103.933 8.75657 103.764 8.70946C103.241 8.56378 102.811 8.5 102.082 8.5C98.7845 8.5 97.1358 10.3166 97.1358 13.4223V15.5127C97.1358 15.7337 96.9567 15.9127 96.7358 15.9127H95.158C94.9371 15.9127 94.758 16.0918 94.758 16.3127V17.5637C94.758 17.7846 94.9371 17.9637 95.158 17.9637H96.7358C96.9567 17.9637 97.1358 18.1428 97.1358 18.3637V30.8363Z" fill="#000"/>
<path d="M113.949 29.4783C110.588 29.4783 108.528 27.193 108.528 23.7064V23.472C108.528 19.9561 110.62 17.6707 113.949 17.6707C117.246 17.6707 119.37 19.9561 119.37 23.5013V23.7064C119.37 27.1637 117.278 29.4783 113.949 29.4783ZM113.917 31.5C118.641 31.5 122.097 28.3064 122.097 23.6771V23.4427C122.097 18.8427 118.641 15.649 113.949 15.649C109.257 15.649 105.801 18.872 105.801 23.472V23.7064C105.801 28.1892 109.193 31.5 113.917 31.5Z" fill="#000"/>
<path d="M126.552 30.8363C126.552 31.0572 126.731 31.2363 126.952 31.2363H128.815C129.036 31.2363 129.215 31.0572 129.215 30.8363V8.9879C129.215 8.76698 129.036 8.5879 128.815 8.5879H126.952C126.731 8.5879 126.552 8.76698 126.552 8.9879V30.8363Z" fill="#000"/>
<path d="M141.163 31.5C142.998 31.5 144.778 30.6841 145.943 29.635C146.24 29.3671 146.838 29.5726 146.838 29.9727V30.8363C146.838 31.0572 147.017 31.2363 147.238 31.2363H149.07C149.29 31.2363 149.47 31.0572 149.47 30.8363V8.9879C149.47 8.76698 149.29 8.5879 149.07 8.5879H147.238C147.017 8.5879 146.838 8.76698 146.838 8.9879V17.0005C146.838 17.4007 146.26 17.5897 145.972 17.3123C144.96 16.3387 143.481 15.649 141.417 15.649C136.851 15.649 133.681 18.9599 133.681 23.6478V23.8822C133.681 28.658 136.82 31.5 141.163 31.5ZM141.448 29.4783C138.658 29.4783 136.407 27.6325 136.407 23.765V23.5306C136.407 19.8096 138.373 17.6707 141.67 17.6707C144.904 17.6707 146.933 19.5166 146.933 23.4427V23.6771C146.933 27.6032 144.524 29.4783 141.448 29.4783Z" fill="#000"/>
<path d="M161.896 31.5C165.442 31.5 168.105 30.0523 168.859 27.2816C168.925 27.0402 168.735 26.8121 168.485 26.8121H166.664C166.473 26.8121 166.311 26.9486 166.257 27.1323C165.798 28.7044 164.337 29.4783 161.928 29.4783C158.672 29.4783 156.877 27.6977 156.625 24.473C156.607 24.247 156.79 24.058 157.016 24.058H168.693C168.914 24.058 169.093 23.8789 169.093 23.658V23.2669C169.093 17.7879 165.479 15.649 161.642 15.649C157.077 15.649 153.875 18.872 153.875 23.5013V23.7357C153.875 28.4529 157.204 31.5 161.896 31.5ZM157.167 22.0949C156.92 22.0949 156.732 21.8733 156.787 21.633C157.352 19.1794 159.103 17.6707 161.642 17.6707C164.241 17.6707 165.976 18.8153 166.352 21.6628C166.383 21.8943 166.198 22.0949 165.965 22.0949H157.167Z" fill="#000"/>
<path d="M179.694 31.5C181.529 31.5 183.309 30.6841 184.473 29.635C184.771 29.3671 185.369 29.5726 185.369 29.9727V30.8363C185.369 31.0572 185.548 31.2363 185.769 31.2363H187.6C187.821 31.2363 188 31.0572 188 30.8363V8.9879C188 8.76698 187.821 8.5879 187.6 8.5879H185.769C185.548 8.5879 185.369 8.76698 185.369 8.9879V17.0005C185.369 17.4007 184.791 17.5897 184.502 17.3123C183.49 16.3387 182.012 15.649 179.947 15.649C175.382 15.649 172.211 18.9599 172.211 23.6478V23.8822C172.211 28.658 175.35 31.5 179.694 31.5ZM179.979 29.4783C177.189 29.4783 174.938 27.6325 174.938 23.765V23.5306C174.938 19.8096 176.904 17.6707 180.201 17.6707C183.435 17.6707 185.464 19.5166 185.464 23.4427V23.6771C185.464 27.6032 183.054 29.4783 179.979 29.4783Z" fill="#000"/>
<path d="M63.7702 31.5C65.6123 31.5 67.06 30.8972 68.0293 30.0504C68.3434 29.7761 69.0331 29.9964 69.0331 30.4133V30.8363C69.0331 31.0572 69.2121 31.2363 69.4331 31.2363H71.2645C71.4854 31.2363 71.6645 31.0572 71.6645 30.8363V16.3127C71.6645 16.0918 71.4854 15.9127 71.2645 15.9127H69.4331C69.2121 15.9127 69.0331 16.0918 69.0331 16.3127V25.2006C69.0331 27.9548 66.8138 29.3904 64.4677 29.3904C61.8679 29.3904 60.6314 28.1892 60.6314 25.4936V16.3127C60.6314 16.0918 60.4524 15.9127 60.2314 15.9127H58.4C58.1791 15.9127 58 16.0918 58 16.3127V25.6108C58 29.8299 60.4729 31.5 63.7702 31.5Z" stroke="#000" stroke-width="0.2" mask="url(#path-5-outside-1)"/>
<path d="M77.2999 30.8363C77.2999 31.0572 77.479 31.2363 77.6999 31.2363H79.5314C79.7523 31.2363 79.9314 31.0572 79.9314 30.8363V21.9484C79.9314 19.1943 82.119 17.7586 84.5602 17.7586C87.2233 17.7586 88.4598 18.9599 88.4598 21.6554V30.8363C88.4598 31.0572 88.6389 31.2363 88.8598 31.2363H90.6912C90.9121 31.2363 91.0912 31.0572 91.0912 30.8363V21.8312C91.0912 17.3777 88.6817 15.649 85.2577 15.649C83.3711 15.649 81.9095 16.2522 80.9359 17.0995C80.6214 17.3732 79.9314 17.1527 79.9314 16.7357V16.3127C79.9314 16.0918 79.7523 15.9127 79.5314 15.9127H77.6999C77.479 15.9127 77.2999 16.0918 77.2999 16.3127V30.8363Z" stroke="#000" stroke-width="0.2" mask="url(#path-5-outside-1)"/>
<path d="M97.1358 30.8363C97.1358 31.0572 97.3149 31.2363 97.5358 31.2363H99.3673C99.5882 31.2363 99.7673 31.0572 99.7673 30.8363V18.3637C99.7673 18.1428 99.9464 17.9637 100.167 17.9637H103.425C103.646 17.9637 103.825 17.7846 103.825 17.5637V16.3127C103.825 16.0918 103.646 15.9127 103.425 15.9127H100.167C99.9464 15.9127 99.7673 15.7337 99.7673 15.5127V13.1586C99.7673 11.6057 100.465 10.5217 102.177 10.5217C102.657 10.5217 103.109 10.5851 103.498 10.6785C103.768 10.7436 104.047 10.5481 104.047 10.2696V9.08832C104.047 8.91277 103.933 8.75657 103.764 8.70946C103.241 8.56378 102.811 8.5 102.082 8.5C98.7845 8.5 97.1358 10.3166 97.1358 13.4223V15.5127C97.1358 15.7337 96.9567 15.9127 96.7358 15.9127H95.158C94.9371 15.9127 94.758 16.0918 94.758 16.3127V17.5637C94.758 17.7846 94.9371 17.9637 95.158 17.9637H96.7358C96.9567 17.9637 97.1358 18.1428 97.1358 18.3637V30.8363Z" stroke="#000" stroke-width="0.2" mask="url(#path-5-outside-1)"/>
<path d="M113.949 29.4783C110.588 29.4783 108.528 27.193 108.528 23.7064V23.472C108.528 19.9561 110.62 17.6707 113.949 17.6707C117.246 17.6707 119.37 19.9561 119.37 23.5013V23.7064C119.37 27.1637 117.278 29.4783 113.949 29.4783ZM113.917 31.5C118.641 31.5 122.097 28.3064 122.097 23.6771V23.4427C122.097 18.8427 118.641 15.649 113.949 15.649C109.257 15.649 105.801 18.872 105.801 23.472V23.7064C105.801 28.1892 109.193 31.5 113.917 31.5Z" stroke="#000" stroke-width="0.2" mask="url(#path-5-outside-1)"/>
<path d="M126.552 30.8363C126.552 31.0572 126.731 31.2363 126.952 31.2363H128.815C129.036 31.2363 129.215 31.0572 129.215 30.8363V8.9879C129.215 8.76698 129.036 8.5879 128.815 8.5879H126.952C126.731 8.5879 126.552 8.76698 126.552 8.9879V30.8363Z" stroke="#000" stroke-width="0.2" mask="url(#path-5-outside-1)"/>
<path d="M141.163 31.5C142.998 31.5 144.778 30.6841 145.943 29.635C146.24 29.3671 146.838 29.5726 146.838 29.9727V30.8363C146.838 31.0572 147.017 31.2363 147.238 31.2363H149.07C149.29 31.2363 149.47 31.0572 149.47 30.8363V8.9879C149.47 8.76698 149.29 8.5879 149.07 8.5879H147.238C147.017 8.5879 146.838 8.76698 146.838 8.9879V17.0005C146.838 17.4007 146.26 17.5897 145.972 17.3123C144.96 16.3387 143.481 15.649 141.417 15.649C136.851 15.649 133.681 18.9599 133.681 23.6478V23.8822C133.681 28.658 136.82 31.5 141.163 31.5ZM141.448 29.4783C138.658 29.4783 136.407 27.6325 136.407 23.765V23.5306C136.407 19.8096 138.373 17.6707 141.67 17.6707C144.904 17.6707 146.933 19.5166 146.933 23.4427V23.6771C146.933 27.6032 144.524 29.4783 141.448 29.4783Z" stroke="#000" stroke-width="0.2" mask="url(#path-5-outside-1)"/>
<path d="M161.896 31.5C165.442 31.5 168.105 30.0523 168.859 27.2816C168.925 27.0402 168.735 26.8121 168.485 26.8121H166.664C166.473 26.8121 166.311 26.9486 166.257 27.1323C165.798 28.7044 164.337 29.4783 161.928 29.4783C158.672 29.4783 156.877 27.6977 156.625 24.473C156.607 24.247 156.79 24.058 157.016 24.058H168.693C168.914 24.058 169.093 23.8789 169.093 23.658V23.2669C169.093 17.7879 165.479 15.649 161.642 15.649C157.077 15.649 153.875 18.872 153.875 23.5013V23.7357C153.875 28.4529 157.204 31.5 161.896 31.5ZM157.167 22.0949C156.92 22.0949 156.732 21.8733 156.787 21.633C157.352 19.1794 159.103 17.6707 161.642 17.6707C164.241 17.6707 165.976 18.8153 166.352 21.6628C166.383 21.8943 166.198 22.0949 165.965 22.0949H157.167Z" stroke="#000" stroke-width="0.2" mask="url(#path-5-outside-1)"/>
<path d="M179.694 31.5C181.529 31.5 183.309 30.6841 184.473 29.635C184.771 29.3671 185.369 29.5726 185.369 29.9727V30.8363C185.369 31.0572 185.548 31.2363 185.769 31.2363H187.6C187.821 31.2363 188 31.0572 188 30.8363V8.9879C188 8.76698 187.821 8.5879 187.6 8.5879H185.769C185.548 8.5879 185.369 8.76698 185.369 8.9879V17.0005C185.369 17.4007 184.791 17.5897 184.502 17.3123C183.49 16.3387 182.012 15.649 179.947 15.649C175.382 15.649 172.211 18.9599 172.211 23.6478V23.8822C172.211 28.658 175.35 31.5 179.694 31.5ZM179.979 29.4783C177.189 29.4783 174.938 27.6325 174.938 23.765V23.5306C174.938 19.8096 176.904 17.6707 180.201 17.6707C183.435 17.6707 185.464 19.5166 185.464 23.4427V23.6771C185.464 27.6032 183.054 29.4783 179.979 29.4783Z" stroke="#000" stroke-width="0.2" mask="url(#path-5-outside-1)"/>
</svg>
