<svg fill="none" height="329" viewBox="0 0 1201 329" width="1201" xmlns="http://www.w3.org/2000/svg"><g fill="#4124fa"><path d="m64.83 230.634c-12.02 0-22.91-2.5-32.68-7.51s-17.49-12.27-23.16002-21.79c-5.68-9.52-8.51-21.03-8.51-34.56v-3.51c0-13.52 2.84-25.04 8.51-34.56 5.68002-9.52 13.40002-16.78 23.16002-21.79 9.77-5.01 20.66-7.5097 32.68-7.5097s22.04 2.0897 30.55 6.2597 15.4 9.89 20.66 17.15 8.72 15.49 10.39 24.67l-30.55 6.51c-.67-5.01-2.17-9.51-4.51-13.52s-5.63-7.18-9.89-9.52c-4.26-2.33-9.56-3.51-15.9-3.51s-12.06 1.38-17.15 4.13-9.1 6.85-12.02 12.27c-2.92 5.43-4.38 12.06-4.38 19.91v2.5c0 7.85 1.46 14.49 4.38 19.91 2.92 5.43 6.93 9.52 12.02 12.27s10.8 4.13 17.15 4.13c9.52 0 16.73-2.46 21.66-7.39 4.92-4.92 8.05-11.4 9.39-19.41l30.55 7.26c-2.17 8.85-5.89 16.9-11.14 24.17-5.26 7.26-12.15 12.98-20.66 17.15-8.52 4.17-18.7 6.26-30.55 6.26z"/><path d="m212.33 230.634c-12.36 0-23.46-2.5-33.31-7.51s-17.62-12.27-23.29-21.79c-5.68-9.52-8.52-20.95-8.52-34.31v-4c0-13.36 2.84-24.79 8.52-34.31 5.67-9.52 13.44-16.78 23.29-21.79s20.95-7.5097 33.31-7.5097 23.45 2.4997 33.3 7.5097 17.61 12.27 23.29 21.79c5.67 9.52 8.52 20.95 8.52 34.31v4c0 13.36-2.84 24.79-8.52 34.31s-13.44 16.78-23.29 21.79-20.95 7.51-33.3 7.51zm0-28.05c9.68 0 17.69-3.13 24.04-9.39s9.52-15.23 9.52-26.92v-2.5c0-11.68-3.13-20.66-9.39-26.92s-14.32-9.39-24.16-9.39-17.7 3.13-24.04 9.39c-6.35 6.26-9.52 15.24-9.52 26.92v2.5c0 11.69 3.17 20.66 9.52 26.92 6.34 6.26 14.35 9.39 24.04 9.39z"/><path d="m358.07 230.634c-16.19 0-29.47-3.51-39.82-10.52s-16.61-17.03-18.78-30.05l29.05-7.51c1.17 5.85 3.13 10.44 5.89 13.77 2.75 3.34 6.17 5.72 10.27 7.14 4.09 1.42 8.55 2.13 13.4 2.13 7.34 0 12.77-1.29 16.28-3.88s5.26-5.8 5.26-9.64-1.67-6.8-5.01-8.89-8.68-3.8-16.02-5.14l-7.01-1.25c-8.68-1.67-16.61-3.96-23.79-6.89-7.18-2.92-12.94-6.97-17.28-12.15-4.34-5.17-6.51-11.85-6.51-20.03 0-12.35 4.51-21.83 13.52-28.42s20.87-9.8897 35.56-9.8897c13.85 0 25.37 3.0897 34.56 9.2697 9.18 6.18 15.19 14.27 18.03 24.29l-29.3 9.01c-1.34-6.34-4.05-10.85-8.14-13.52s-9.14-4-15.15-4-10.6 1.04-13.77 3.13c-3.18 2.09-4.76 4.97-4.76 8.64 0 4 1.66 6.97 5.01 8.89 3.34 1.92 7.85 3.38 13.53 4.38l7.01 1.25c9.35 1.67 17.82 3.88 25.42 6.64 7.59 2.75 13.61 6.68 18.03 11.77s6.64 11.98 6.64 20.66c0 13.02-4.72 23.08-14.15 30.17-9.44 7.1-22.08 10.64-37.94 10.64z"/><path d="m437.7 227.124v-124.21h31.05v13.52h4.51c2.17-4.17 5.76-7.8 10.77-10.89s11.6-4.63 19.78-4.63c8.85 0 15.94 1.72 21.29 5.14 5.34 3.42 9.43 7.89 12.27 13.4h4.51c2.84-5.34 6.84-9.77 12.02-13.27 5.17-3.51 12.52-5.26 22.04-5.26 7.68 0 14.65 1.63 20.91 4.88s11.27 8.18 15.03 14.77c3.75 6.6 5.63 14.9 5.63 24.92v81.64h-31.55v-79.38c0-6.84-1.75-11.98-5.26-15.4s-8.43-5.13-14.77-5.13c-7.18 0-12.73 2.3-16.65 6.88-3.93 4.59-5.89 11.14-5.89 19.66v73.37h-31.55v-79.38c0-6.84-1.75-11.98-5.26-15.4s-8.43-5.13-14.77-5.13c-7.18 0-12.73 2.3-16.65 6.88-3.92 4.59-5.89 11.14-5.89 19.66v73.37h-31.55z"/><path d="m710.66 230.634c-12.36 0-23.46-2.5-33.31-7.51s-17.62-12.27-23.29-21.79c-5.68-9.52-8.52-20.95-8.52-34.31v-4c0-13.36 2.84-24.79 8.52-34.31 5.67-9.52 13.44-16.78 23.29-21.79s20.95-7.5097 33.31-7.5097 23.45 2.4997 33.3 7.5097 17.61 12.27 23.29 21.79c5.67 9.52 8.52 20.95 8.52 34.31v4c0 13.36-2.84 24.79-8.52 34.31s-13.44 16.78-23.29 21.79-20.95 7.51-33.3 7.51zm0-28.05c9.68 0 17.69-3.13 24.04-9.39 6.34-6.26 9.52-15.23 9.52-26.92v-2.5c0-11.68-3.13-20.66-9.39-26.92s-14.32-9.39-24.16-9.39-17.7 3.13-24.04 9.39c-6.35 6.26-9.52 15.24-9.52 26.92v2.5c0 11.69 3.17 20.66 9.52 26.92 6.34 6.26 14.35 9.39 24.04 9.39z"/><path d="m856.4 230.634c-16.19 0-29.47-3.51-39.82-10.52s-16.61-17.03-18.78-30.05l29.05-7.51c1.17 5.85 3.13 10.44 5.89 13.77 2.75 3.34 6.17 5.72 10.27 7.14 4.09 1.42 8.55 2.13 13.4 2.13 7.34 0 12.77-1.29 16.28-3.88s5.26-5.8 5.26-9.64-1.67-6.8-5.01-8.89-8.68-3.8-16.02-5.14l-7.01-1.25c-8.68-1.67-16.61-3.96-23.79-6.89-7.18-2.92-12.94-6.97-17.28-12.15-4.34-5.17-6.51-11.85-6.51-20.03 0-12.35 4.51-21.83 13.52-28.42s20.87-9.8897 35.56-9.8897c13.85 0 25.37 3.0897 34.56 9.2697 9.18 6.18 15.19 14.27 18.03 24.29l-29.3 9.01c-1.34-6.34-4.05-10.85-8.14-13.52s-9.14-4-15.15-4-10.6 1.04-13.77 3.13c-3.18 2.09-4.76 4.97-4.76 8.64 0 4 1.66 6.97 5.01 8.89 3.34 1.92 7.85 3.38 13.53 4.38l7.01 1.25c9.35 1.67 17.82 3.88 25.42 6.64 7.59 2.75 13.61 6.68 18.03 11.77s6.63 11.98 6.63 20.66c0 13.02-4.72 23.08-14.15 30.17-9.44 7.1-22.08 10.64-37.94 10.64z"/><path d="m956.06 230.634c-6.85 0-12.56-2.21-17.15-6.64-4.6-4.42-6.89-10.14-6.89-17.15s2.29-12.73 6.89-17.15c4.59-4.42 10.31-6.64 17.15-6.64s12.27 2.21 16.78 6.64 6.76 10.14 6.76 17.15-2.26 12.73-6.76 17.15c-4.51 4.42-10.1 6.64-16.78 6.64z"/><path d="m1003.14 165.524v-4.01c0-13.02 2.59-24.16 7.76-33.43s12.06-16.36 20.66-21.29c8.6-4.92 17.98-7.3897 28.17-7.3897 11.35 0 19.95 1.9997 25.79 6.0097s10.1 8.18 12.77 12.52h4.51v-15.03h31.05v146.25c0 8.52-2.51 15.32-7.51 20.41-5.01 5.09-11.69 7.64-20.04 7.64h-83.14v-27.55h72.12c4.67 0 7.01-2.51 7.01-7.51v-32.3h-4.51c-1.67 2.67-4.01 5.38-7.01 8.14-3 2.75-7.01 5.05-12.02 6.88-5.01 1.84-11.35 2.75-19.03 2.75-10.19 0-19.57-2.46-28.17-7.39-8.6-4.92-15.49-12.02-20.66-21.28-5.18-9.27-7.76-20.41-7.76-33.43zm65.61 34.56c9.68 0 17.78-3.09 24.29-9.27 6.51-6.17 9.77-14.86 9.77-26.04v-2.51c0-11.35-3.22-20.07-9.64-26.17-6.43-6.09-14.57-9.14-24.42-9.14s-17.78 3.05-24.29 9.14c-6.51 6.1-9.77 14.82-9.77 26.17v2.51c0 11.18 3.26 19.87 9.77 26.04 6.51 6.18 14.61 9.27 24.29 9.27z"/><path d="m1168.92 227.124v-175.2998h31.55v175.2998z"/></g><path d="m290.368 249.445-20.072 16.855 52.48 62.498 20.072-16.854z" fill="#fb1894"/><path d="m227.687 276.654-26.206.476.79 43.503 26.206-.476z" fill="#fb1894"/><path d="m150.556 250.385-118.101 49.718 10.1694 24.157 118.1016-49.719z" fill="#fb1894"/><path d="m100.382.728538-20.0717 16.854462 52.4797 62.4986 20.072-16.8545z" fill="#fb1894"/><path d="m220.857 8.93126-26.206.47572.79 43.50282 26.206-.4757z" fill="#fb1894"/><path d="m380.55 5.15325-118.102 49.71805 10.17 24.1567 118.101-49.718z" fill="#fb1894"/></svg>