<svg role="img" width="80" height="18" viewBox="0 0 80 18" xmlns="http://www.w3.org/2000/svg"><title> Sensat Homepage </title><path fill="currentColor" fill-rule="evenodd" clip-rule="evenodd" d="M71.6921 5.92096H73.412V5.92242V13.5566C73.412 16.4577 75.0248 17.5193 77.618 17.5193H79.9985V15.0581H78.1477C76.8771 15.0581 76.4114 14.6183 76.4114 13.5566V5.92242H80V3.51361H76.4114V0.739258H73.412V3.51215H71.6921V5.92096ZM71.4644 8.68756C71.5418 8.98175 71.6013 9.28467 71.64 9.59196L71.637 9.58613C71.6638 9.80022 71.6817 10.0157 71.6891 10.2342V17.5058H68.6867V16.3188C68.4323 16.5038 68.166 16.6713 67.8878 16.8227C67.8719 16.8308 67.8561 16.8393 67.8402 16.8478L67.8401 16.8479C67.8247 16.8561 67.8094 16.8644 67.7941 16.8722C67.4816 17.0368 67.1558 17.1795 66.8196 17.299C66.5056 17.4111 66.1798 17.5028 65.8465 17.5727C65.5282 17.6397 65.2023 17.6863 64.872 17.7111C64.7709 17.7198 64.6697 17.7242 64.5685 17.7286C64.4778 17.7315 64.3855 17.7329 64.2948 17.7329C64.204 17.7329 64.1118 17.7315 64.021 17.7286C64.0017 17.7279 63.982 17.7268 63.9623 17.7258L63.962 17.7258L63.9267 17.724L63.899 17.7228C63.5672 17.7067 63.2429 17.6674 62.9245 17.6092C62.5913 17.548 62.2654 17.465 61.95 17.3616C61.6138 17.2524 61.2894 17.1198 60.977 16.9654C60.8848 16.9203 60.7925 16.8737 60.7033 16.8242C60.4607 16.6931 60.2272 16.5489 60.0025 16.3916C59.7927 16.2446 59.5904 16.0873 59.397 15.9198C59.269 15.8106 59.147 15.697 59.028 15.579C58.848 15.3999 58.6769 15.212 58.5162 15.0154C58.3496 14.813 58.1963 14.6032 58.0535 14.3848C57.9955 14.2945 57.9389 14.2042 57.8839 14.111C57.7128 13.8212 57.5625 13.5197 57.4331 13.2066C57.3126 12.9139 57.2099 12.6124 57.1296 12.3022L57.129 12.2998C57.1128 12.2365 57.0966 12.1733 57.082 12.1085C57.0269 11.8755 56.9853 11.6381 56.954 11.3978C56.9153 11.1022 56.896 10.7993 56.896 10.4934C56.896 10.1876 56.9168 9.88469 56.954 9.58905C56.9853 9.34875 57.0284 9.11136 57.082 8.87835C57.0968 8.81281 57.1132 8.74873 57.1296 8.68465C57.2114 8.37445 57.3141 8.07298 57.4346 7.78026C57.5625 7.46714 57.7143 7.16568 57.8854 6.87586C57.9389 6.78266 57.9955 6.69236 58.055 6.60207C58.1978 6.38361 58.3525 6.17244 58.5177 5.97147C58.6784 5.77486 58.8495 5.58699 59.0295 5.40786C59.1485 5.28989 59.272 5.1763 59.3985 5.06707C59.5919 4.89959 59.7942 4.74231 60.004 4.59521C60.2286 4.43939 60.4622 4.29375 60.7047 4.16268C60.794 4.11316 60.8862 4.06656 60.9785 4.02141C61.2909 3.86704 61.6153 3.73451 61.9515 3.62528C62.2684 3.52188 62.5927 3.43887 62.926 3.3777C63.2444 3.31945 63.5702 3.28159 63.9005 3.26411C63.945 3.2612 63.9896 3.25974 64.0341 3.25829L64.0344 3.25828C64.1207 3.25537 64.2085 3.25391 64.2963 3.25391C64.384 3.25391 64.4703 3.25537 64.5581 3.25828C64.6638 3.26265 64.7694 3.26848 64.8735 3.27576C65.2053 3.30197 65.5311 3.34858 65.848 3.41411C66.1813 3.48402 66.5056 3.57577 66.821 3.68791C67.1588 3.80733 67.4831 3.95005 67.7955 4.11462C67.8268 4.13064 67.858 4.14666 67.8893 4.16413C68.1973 4.33162 68.4918 4.52094 68.7701 4.72774C68.9159 4.83697 69.0587 4.95056 69.1956 5.06999C69.3875 5.23601 69.5705 5.41077 69.7446 5.59573C69.8591 5.71806 69.9707 5.84477 70.0763 5.97438C70.3099 6.25837 70.5212 6.56129 70.7086 6.87878L70.7112 6.88335L70.7139 6.88753C70.7157 6.89044 70.7176 6.89334 70.7191 6.89625C70.8857 7.18024 71.033 7.47588 71.1594 7.78317C71.2814 8.0759 71.3826 8.37736 71.4644 8.68756ZM68.7715 10.9784C68.7894 10.8196 68.7983 10.6594 68.7983 10.4963L68.7998 10.4934C68.7998 10.3303 68.7909 10.1701 68.773 10.0114C68.7567 9.86721 68.7343 9.7274 68.7046 9.58905C68.6376 9.27447 68.5365 8.97155 68.4041 8.68465C68.2553 8.35989 68.0663 8.05696 67.8446 7.78026C67.8298 7.76132 67.8149 7.74385 67.7985 7.72492C67.5307 7.40015 67.2168 7.1147 66.8657 6.87586C66.8523 6.86567 66.8389 6.85693 66.8255 6.84819C66.525 6.64867 66.1991 6.4841 65.8525 6.35886C65.5415 6.24672 65.2157 6.16808 64.878 6.12584C64.689 6.10108 64.4971 6.08943 64.3007 6.08943C64.1668 6.08943 64.0344 6.09526 63.9035 6.10691C63.5658 6.13458 63.2399 6.20011 62.929 6.29769C62.5838 6.40546 62.2565 6.55255 61.9545 6.7346C61.8801 6.77974 61.8057 6.82635 61.7343 6.87586C61.459 7.06373 61.2061 7.27927 60.9815 7.52103C60.9026 7.60549 60.8267 7.69142 60.7553 7.78171C60.5336 8.05842 60.3447 8.36134 60.1959 8.68611C60.123 8.84339 60.0605 9.00505 60.007 9.17107C59.9623 9.30797 59.9251 9.44778 59.8954 9.5905C59.8329 9.88177 59.8002 10.1847 59.8002 10.4949C59.8002 10.8051 59.8329 11.108 59.8954 11.3993C59.9251 11.542 59.9623 11.6818 60.007 11.8187C60.0605 11.9847 60.123 12.1464 60.1959 12.3037C60.3447 12.6284 60.5336 12.9314 60.7553 13.2081C60.8267 13.2969 60.9011 13.3843 60.98 13.4673C61.2061 13.709 61.459 13.926 61.7343 14.1125C61.8057 14.162 61.8786 14.2086 61.953 14.2537C62.2565 14.4358 62.5823 14.5829 62.9275 14.6906C63.2399 14.7882 63.5658 14.8523 63.902 14.8814C64.0329 14.8931 64.1653 14.8989 64.2992 14.8989C64.4956 14.8989 64.6876 14.8858 64.8765 14.8625C65.2157 14.8202 65.5415 14.7416 65.851 14.6295C66.1977 14.5057 66.5235 14.3396 66.824 14.1401C66.8281 14.1379 66.8322 14.1353 66.8364 14.1327L66.8486 14.1245L66.8505 14.1232L66.8642 14.1139C67.2153 13.8765 67.5307 13.5896 67.7985 13.2649C67.8059 13.2554 67.8134 13.2463 67.8208 13.2372C67.8283 13.2281 67.8358 13.219 67.8432 13.2095C68.0648 12.9328 68.2538 12.6299 68.4026 12.3051C68.5335 12.0197 68.6362 11.7168 68.7031 11.4007C68.7329 11.2624 68.7552 11.1211 68.7715 10.9784ZM28.1816 11.6415C28.2426 11.2687 28.2739 10.8857 28.2739 10.4968C28.2739 10.0658 28.2352 9.64196 28.1608 9.23127C27.5493 5.83506 24.5202 3.25586 20.8751 3.25586C17.23 3.25586 14.2009 5.83506 13.5894 9.23127C13.515 9.64196 13.4763 10.0658 13.4763 10.4968C13.4763 10.8857 13.5076 11.2687 13.5686 11.6415C13.6727 12.2867 13.8646 12.9027 14.1309 13.4795C14.5505 14.3868 15.1545 15.195 15.8984 15.8562C17.2122 17.0257 18.9588 17.7393 20.8751 17.7393C22.7914 17.7393 24.5366 17.0257 25.8518 15.8562C26.5942 15.195 27.1997 14.3868 27.6193 13.4795H24.1854C23.3642 14.3533 22.1844 14.9009 20.8751 14.9009C19.5658 14.9009 18.386 14.3533 17.5648 13.4795C17.0812 12.9654 16.7212 12.3377 16.5293 11.6415H28.1802H28.1816ZM16.5665 9.23127C17.1229 7.41666 18.8413 6.09283 20.8766 6.09283C22.9119 6.09283 24.6303 7.4152 25.1867 9.23127H16.5665ZM42.2578 17.5189V9.52788C42.2578 8.17347 41.8189 6.91955 41.0735 5.89428C39.9115 4.29666 38.0027 3.25391 35.8469 3.25391C33.6911 3.25391 31.7837 4.29666 30.6218 5.89428C29.8764 6.91955 29.4375 8.17347 29.4375 9.52788V17.5189H32.4399V9.36186C32.4399 7.51957 33.9648 6.02535 35.8469 6.02535C37.729 6.02535 39.2554 7.51957 39.2554 9.36186V17.5189H42.2578ZM3.54094 7.4079C3.54094 6.43506 4.47379 5.77679 6.25467 5.77679C8.03556 5.77679 9.14248 6.64477 9.26001 7.90597H12.5867C12.4112 5.01366 10.0188 3.25293 6.37221 3.25293C2.72563 3.25293 0.185974 5.11997 0.185974 7.43412C0.185974 10.502 3.31132 11.0952 5.95146 11.5963C7.882 11.9627 9.5531 12.2799 9.5531 13.4794C9.5531 14.4785 8.53248 15.214 6.60579 15.214C4.99154 15.214 3.8266 14.4639 3.48887 13.4794H0C0.395752 15.9043 3.02022 17.7393 6.66382 17.7393C10.3074 17.7393 12.8203 15.8984 12.8203 13.4532C12.7208 10.4619 9.70303 9.86878 7.13608 9.36428C5.21271 8.98627 3.54243 8.658 3.54243 7.4079H3.54094ZM49.6773 5.77679C47.8964 5.77679 46.9635 6.43506 46.9635 7.4079L46.9665 7.40645C46.9665 8.65657 48.6368 8.98484 50.5601 9.36286C53.1271 9.86736 56.1448 10.4605 56.2444 13.4518C56.2444 15.897 53.7315 17.7378 50.0879 17.7378C46.4443 17.7378 43.8198 15.9028 43.4241 13.478H46.9115C47.2492 14.4625 48.4141 15.2125 50.0284 15.2125C51.9551 15.2125 52.9757 14.477 52.9757 13.478C52.9757 12.2785 51.3046 11.9613 49.3741 11.5949C46.7339 11.0938 43.6086 10.5006 43.6086 7.43266C43.6086 5.11997 46.1482 3.25293 49.7948 3.25293C53.4414 3.25293 55.8337 5.01366 56.0093 7.90598H52.6826C52.5651 6.64477 51.4581 5.77679 49.6773 5.77679Z"></path></svg>