<svg width="988" height="200" viewBox="0 0 988 200" fill="none" xmlns="http://www.w3.org/2000/svg">
<path d="M23.4334 37.2796L24.3545 0H0.5L23.4334 37.2796Z" fill="#FF3636"/>
<path d="M30.681 1.52588e-05L79.5901 41.3825L53.1678 1.52588e-05H30.681Z" fill="#FF5A36"/>
<path d="M30.681 48.8069L61.448 99.1115L57.3079 64.5021L30.681 48.8069Z" fill="#FF5A36"/>
<path d="M38.9612 48.6673L75.2081 47.0391L60.2665 60.5015L38.9612 48.6673Z" fill="#ABB9D6"/>
<path d="M63.2158 65.9813L66.7697 106.145L104.487 88.6077L63.2158 65.9813Z" fill="#FFB357"/>
<path d="M70.026 111.541L110.264 143.49L119.14 111.243L70.026 111.541Z" fill="#89D1D1"/>
<path d="M76.0547 122.185L118.842 191.394L109.529 149.854L76.0547 122.185Z" fill="#89D1D1"/>
<path d="M113.967 148.97L124.173 200L156.122 147.193L113.967 148.97Z" fill="#98F0F0"/>
<path d="M128.611 109.466L157.201 100.005V135.656L128.611 109.466Z" fill="#50A0C8"/>
<path d="M163.23 96.5996L162.634 136.987L193.243 86.6726L163.23 96.5996Z" fill="#3471E3"/>
<path d="M178.236 60.9481L165.444 90.6824L197.541 79.7321L178.236 60.9481Z" fill="#3471E3"/>
<path d="M180.534 54.2866L200.584 74.6337L220.847 41.3825L180.534 54.2866Z" fill="#3471E3"/>
<path d="M199.337 1.52588e-05L226.448 32.1999L246.069 1.52588e-05H199.337Z" fill="#663399"/>
<path d="M175.464 28.5807V54.2866L137.235 89.5008L175.464 28.5807Z" fill="#50A0C8"/>
<path d="M29.2017 4.73558L28.3085 44.3783L74.0265 42.899L29.2017 4.73558Z" fill="#ABB9D6"/>
<path d="M83.2464 47.1136L104.487 80.3833L67.9606 61.2458L83.2464 47.1136Z" fill="#ABB9D6"/>
<path d="M82.1579 106.145L112.097 92.3013L121.363 106.22L82.1579 106.145Z" fill="#ABB9D6"/>
<path d="M123.894 112.267L159.08 142.011L115.595 143.508L123.894 112.267Z" fill="#ABB9D6"/>
<path d="M128.164 104.591L172.989 62.1296L158.345 94.5249L128.164 104.591Z" fill="#ABB9D6"/>
<path d="M179.353 23.3707L180.013 49.7093L219.144 37.3913L179.353 23.3707Z" fill="#ABB9D6"/>
<path d="M181.297 19.2864L193.401 0L220.773 32.6929L181.297 19.2864Z" fill="#8E6CD6"/>
<path d="M360.07 156L400.294 52.86H424.223L381.729 156H360.07ZM358.419 156L315.719 52.86H339.442L379.872 156H358.419ZM440.105 156V52.86H463.002V156H440.105ZM451.656 33.2634C447.943 33.2634 444.711 31.957 441.961 29.3441C439.348 26.5937 438.042 23.362 438.042 19.6489C438.042 15.9359 439.348 12.7729 441.961 10.16C444.711 7.54716 447.943 6.24072 451.656 6.24072C455.369 6.24072 458.532 7.54716 461.145 10.16C463.896 12.7729 465.271 15.9359 465.271 19.6489C465.271 23.362 463.896 26.5937 461.145 29.3441C458.532 31.957 455.369 33.2634 451.656 33.2634ZM527.774 158.475C520.898 158.475 514.572 157.444 508.796 155.381C503.02 153.318 498.069 150.43 493.944 146.717C489.818 142.867 486.655 138.397 484.455 133.309L504.464 124.439C506.527 128.29 509.552 131.521 513.54 134.134C517.666 136.747 522.204 138.054 527.155 138.054C532.518 138.054 536.781 137.16 539.944 135.372C543.245 133.447 544.895 130.834 544.895 127.533C544.895 124.37 543.657 121.964 541.182 120.314C538.706 118.526 535.2 117.082 530.661 115.982L520.966 113.3C511.202 110.825 503.57 106.905 498.069 101.542C492.568 96.0413 489.818 89.7841 489.818 82.7706C489.818 72.4566 493.119 64.4804 499.719 58.8421C506.458 53.2038 516.084 50.3846 528.599 50.3846C534.925 50.3846 540.7 51.3473 545.926 53.2726C551.289 55.0603 555.896 57.6732 559.747 61.1112C563.598 64.4117 566.279 68.331 567.792 72.8692L548.608 81.5329C547.233 78.0949 544.62 75.482 540.769 73.6943C536.919 71.769 532.656 70.8064 527.98 70.8064C523.304 70.8064 519.66 71.8378 517.047 73.9006C514.434 75.8258 513.128 78.5762 513.128 82.1518C513.128 84.2146 514.297 86.1398 516.634 87.9276C518.972 89.5778 522.342 90.953 526.742 92.0532L538.913 94.9411C545.651 96.5914 551.152 99.2042 555.415 102.78C559.678 106.218 562.841 110.137 564.904 114.538C566.967 118.801 567.998 123.133 567.998 127.533C567.998 133.722 566.21 139.154 562.635 143.829C559.197 148.505 554.452 152.149 548.402 154.762C542.351 157.238 535.475 158.475 527.774 158.475ZM597.459 158.888C593.471 158.888 590.033 157.513 587.145 154.762C584.395 151.874 583.02 148.436 583.02 144.448C583.02 140.46 584.395 137.022 587.145 134.134C590.033 131.246 593.471 129.802 597.459 129.802C601.447 129.802 604.885 131.246 607.773 134.134C610.661 137.022 612.105 140.46 612.105 144.448C612.105 148.436 610.661 151.874 607.773 154.762C604.885 157.513 601.447 158.888 597.459 158.888ZM678.614 199.938C671.326 199.938 664.725 199.319 658.811 198.081C653.035 196.843 648.154 195.399 644.165 193.749C640.177 192.099 637.083 190.518 634.883 189.005L643.753 170.44C645.678 171.402 648.222 172.571 651.385 173.946C654.686 175.459 658.536 176.766 662.937 177.866C667.338 178.966 672.288 179.516 677.789 179.516C683.702 179.516 688.997 178.278 693.673 175.803C698.348 173.465 701.993 169.821 704.605 164.87C707.218 159.919 708.525 153.593 708.525 145.892V52.86H731.628V145.273C731.628 156.963 729.428 166.864 725.027 174.978C720.627 183.229 714.438 189.417 706.462 193.543C698.486 197.806 689.203 199.938 678.614 199.938ZM675.107 153.937C665.756 153.937 657.574 151.806 650.56 147.543C643.684 143.279 638.252 137.366 634.264 129.802C630.413 122.101 628.488 113.231 628.488 103.192C628.488 92.4658 630.413 83.1832 634.264 75.3445C638.252 67.5059 643.684 61.3862 650.56 56.9856C657.574 52.585 665.756 50.3846 675.107 50.3846C683.496 50.3846 690.785 52.585 696.973 56.9856C703.299 61.3862 708.181 67.5746 711.619 75.5508C715.057 83.3894 716.776 92.672 716.776 103.399C716.776 113.575 715.057 122.445 711.619 130.009C708.181 137.572 703.299 143.486 696.973 147.749C690.785 151.874 683.496 153.937 675.107 153.937ZM681.502 134.341C686.728 134.341 691.266 132.965 695.117 130.215C699.105 127.465 702.199 123.752 704.399 119.076C706.6 114.263 707.7 108.762 707.7 102.573C707.7 96.2476 706.6 90.7468 704.399 86.0711C702.199 81.2579 699.105 77.5448 695.117 74.932C691.129 72.1816 686.522 70.8064 681.296 70.8064C675.795 70.8064 670.913 72.1816 666.65 74.932C662.524 77.5448 659.224 81.2579 656.749 86.0711C654.411 90.7468 653.242 96.2476 653.242 102.573C653.242 108.762 654.411 114.263 656.749 119.076C659.224 123.752 662.593 127.465 666.856 130.215C671.119 132.965 676.001 134.341 681.502 134.341ZM757.146 156V11.604H780.249V156H757.146Z" fill="#111827"/>
</svg>
